<?xml version="1.0" encoding="utf-8"?>
<!-- Generator: Adobe Illustrator 24.1.2, SVG Export Plug-In . SVG Version: 6.00 Build 0)  -->
<svg version="1.1" id="Capa_1" xmlns="http://www.w3.org/2000/svg" xmlns:xlink="http://www.w3.org/1999/xlink" x="0px" y="0px"
	 viewBox="0 0 512 512" style="enable-background:new 0 0 512 512;" xml:space="preserve">
<style type="text/css">
	.st0{fill:#E11515;}
</style>
<g>
	<path class="st0" d="M417,51v-6c0-24.8-20.2-45-45-45s-45,20.2-45,45v6H185v-6c0-24.8-20.2-45-45-45S95,20.2,95,45v6H0v461h512V51
		H417z M357,45c0-8.3,6.7-15,15-15s15,6.7,15,15v31.3c0,8.3-6.7,15-15,15s-15-6.7-15-15V45z M125,45c0-8.3,6.7-15,15-15
		s15,6.7,15,15v31.3c0,8.3-6.7,15-15,15s-15-6.7-15-15V45z M95.2,81c2.4,22.6,21.5,40.3,44.8,40.3s42.4-17.7,44.8-40.3h142.6
		c2.4,22.6,21.5,40.3,44.8,40.3s42.4-17.7,44.8-40.3H482v69.7H30V81L95.2,81z M30,482V180.7h452V482H30z"/>
	<path class="st0" d="M256,211.8c-66,0-119.8,53.7-119.8,119.8c0,66,53.7,119.8,119.8,119.8s119.8-53.7,119.8-119.8
		C375.8,265.5,322,211.8,256,211.8z M256,421.4c-49.5,0-89.8-40.3-89.8-89.8c0-49.5,40.3-89.8,89.8-89.8s89.8,40.3,89.8,89.8
		C345.8,381.1,305.5,421.4,256,421.4z"/>
	<path class="st0" d="M243.4,342.3l-28.1-28.1l-21.2,21.2l49.3,49.3l74.5-74.5L296.7,289L243.4,342.3z"/>
</g>
</svg>
