<svg xmlns="http://www.w3.org/2000/svg" width="9" height="12" viewBox="0 0 9 12">
  <metadata><?xpacket begin="﻿" id="W5M0MpCehiHzreSzNTczkc9d"?>
<x:xmpmeta xmlns:x="adobe:ns:meta/" x:xmptk="Adobe XMP Core 5.6-c138 79.159824, 2016/09/14-01:09:01        ">
   <rdf:RDF xmlns:rdf="http://www.w3.org/1999/02/22-rdf-syntax-ns#">
      <rdf:Description rdf:about=""/>
   </rdf:RDF>
</x:xmpmeta>
                                                                                                    
                                                                                                    
                                                                                                    
                                                                                                    
                                                                                                    
                                                                                                    
                                                                                                    
                                                                                                    
                                                                                                    
                                                                                                    
                                                                                                    
                                                                                                    
                                                                                                    
                                                                                                    
                                                                                                    
                                                                                                    
                                                                                                    
                                                                                                    
                                                                                                    
                                                                                                    
                           
<?xpacket end="w"?></metadata>
<defs>
    <style>
      .cls-1 {
        fill: #d3ae6d;
        fill-rule: evenodd;
      }
    </style>
  </defs>
  <path id="形狀_2" data-name="形狀 2" class="cls-1" d="M1256.25,19.292h5.3a1.326,1.326,0,0,1,1.45,1.381v3.853a2.481,2.481,0,0,1-2.11,2.429,2.736,2.736,0,0,1-.5.042q-1.89.005-3.78,0a2.5,2.5,0,0,1-2.61-2.481V20.677a1.325,1.325,0,0,1,1.35-1.392V17.943a2.88,2.88,0,0,1,2.52-2.885,3.178,3.178,0,0,1,3.32,1.3,2.748,2.748,0,0,1,.46,1.466,0.443,0.443,0,0,1-.45.479,0.435,0.435,0,0,1-.45-0.46,2.083,2.083,0,0,0-2.12-1.983,2.526,2.526,0,0,0-1.09.165,1.982,1.982,0,0,0-1.29,1.84C1256.24,18.338,1256.25,18.806,1256.25,19.292Zm2.25,0.856h-3.08a0.448,0.448,0,0,0-.52.495v3.88a1.625,1.625,0,0,0,1.7,1.618c1.26,0,2.53,0,3.79,0a1.627,1.627,0,0,0,1.71-1.625V20.65a0.453,0.453,0,0,0-.53-0.5h-3.07Zm0,1.282a0.891,0.891,0,0,1,.85.573,0.827,0.827,0,0,1-.29.947,0.233,0.233,0,0,0-.11.221v1.217a0.45,0.45,0,1,1-.9,0v-1.23a0.224,0.224,0,0,0-.1-0.2,0.82,0.82,0,0,1-.3-0.957A0.9,0.9,0,0,1,1258.5,21.43Z" transform="translate(-1254 -15)"/>
</svg>
