<svg xmlns="http://www.w3.org/2000/svg" width="12" height="14" viewBox="0 0 12 14">
  <metadata><?xpacket begin="﻿" id="W5M0MpCehiHzreSzNTczkc9d"?>
<x:xmpmeta xmlns:x="adobe:ns:meta/" x:xmptk="Adobe XMP Core 5.6-c138 79.159824, 2016/09/14-01:09:01        ">
   <rdf:RDF xmlns:rdf="http://www.w3.org/1999/02/22-rdf-syntax-ns#">
      <rdf:Description rdf:about=""/>
   </rdf:RDF>
</x:xmpmeta>
                                                                                                    
                                                                                                    
                                                                                                    
                                                                                                    
                                                                                                    
                                                                                                    
                                                                                                    
                                                                                                    
                                                                                                    
                                                                                                    
                                                                                                    
                                                                                                    
                                                                                                    
                                                                                                    
                                                                                                    
                                                                                                    
                                                                                                    
                                                                                                    
                                                                                                    
                                                                                                    
                           
<?xpacket end="w"?></metadata>
<defs>
    <style>
      .cls-1 {
        fill: #d3ae6d;
        fill-rule: evenodd;
      }
    </style>
  </defs>
  <path id="形狀_1" data-name="形狀 1" class="cls-1" d="M1093.76,27a5.176,5.176,0,0,1-.6-0.189,1.985,1.985,0,0,1-1.16-1.919,5.964,5.964,0,0,1,3.59-5.286l0.26-.111a3.553,3.553,0,0,1-1.41-3.6,3.374,3.374,0,0,1,1.29-2.1,3.652,3.652,0,0,1,4.88.3,3.432,3.432,0,0,1,1.01,2.792,3.545,3.545,0,0,1-1.47,2.6c0.19,0.084.36,0.155,0.52,0.239a5.884,5.884,0,0,1,3.03,3.449,5.055,5.055,0,0,1,.29,2,1.957,1.957,0,0,1-1.67,1.8,0.489,0.489,0,0,0-.08.026h-8.48Zm4.24-1.075c1.3,0,2.61,0,3.92,0a0.908,0.908,0,0,0,.99-1,5.987,5.987,0,0,0-.06-0.6,4.611,4.611,0,0,0-2.12-3.314,4.912,4.912,0,0,0-7.63,4,0.781,0.781,0,0,0,.1.419,0.891,0.891,0,0,0,.89.5H1098Zm0.02-11.85a2.513,2.513,0,1,0,2.53,2.561A2.538,2.538,0,0,0,1098.02,14.074Z" transform="translate(-1092 -13)"/>
</svg>
