<svg xmlns="http://www.w3.org/2000/svg" width="15" height="15" viewBox="0 0 15 15">
  <metadata><?xpacket begin="﻿" id="W5M0MpCehiHzreSzNTczkc9d"?>
<x:xmpmeta xmlns:x="adobe:ns:meta/" x:xmptk="Adobe XMP Core 5.6-c138 79.159824, 2016/09/14-01:09:01        ">
   <rdf:RDF xmlns:rdf="http://www.w3.org/1999/02/22-rdf-syntax-ns#">
      <rdf:Description rdf:about=""/>
   </rdf:RDF>
</x:xmpmeta>
                                                                                                    
                                                                                                    
                                                                                                    
                                                                                                    
                                                                                                    
                                                                                                    
                                                                                                    
                                                                                                    
                                                                                                    
                                                                                                    
                                                                                                    
                                                                                                    
                                                                                                    
                                                                                                    
                                                                                                    
                                                                                                    
                                                                                                    
                                                                                                    
                                                                                                    
                                                                                                    
                           
<?xpacket end="w"?></metadata>
<defs>
    <style>
      .cls-1 {
        fill: #d3ae6d;
        fill-rule: evenodd;
      }
    </style>
  </defs>
  <path id="形狀_25_拷貝" data-name="形狀 25 拷貝" class="cls-1" d="M1389,20.044V20.98a0.445,0.445,0,0,0-.02.113,7.5,7.5,0,0,1-6.19,6.793c-0.27.048-.54,0.076-0.82,0.114h-0.94a0.57,0.57,0,0,0-.11-0.024,7.487,7.487,0,1,1,7.97-8.754C1388.93,19.494,1388.96,19.77,1389,20.044Zm-7.5-5.972a6.44,6.44,0,1,0,6.45,6.438A6.44,6.44,0,0,0,1381.5,14.072Zm-0.21,2.682a2.863,2.863,0,0,1,1.28.243,1.511,1.511,0,0,1,.72,2.194,3.126,3.126,0,0,1-.83.95c-0.09.071-.17,0.142-0.26,0.218a1.054,1.054,0,0,0-.34.764,2.852,2.852,0,0,1-.01.292,0.337,0.337,0,0,1-.26.358c-0.04.011-.07,0.02-0.1,0.026-0.55.095-.75-0.067-0.76-0.618a1.858,1.858,0,0,1,.74-1.589c0.17-.127.33-0.259,0.49-0.4a0.881,0.881,0,0,0,.31-0.624,0.6,0.6,0,0,0-.34-0.57,1.122,1.122,0,0,0-1.45.348,0.487,0.487,0,0,1-.69.232,0.554,0.554,0,0,1-.29-0.715,1.45,1.45,0,0,1,.9-0.918A2.328,2.328,0,0,1,1381.29,16.754Zm0.75,6.5a0.755,0.755,0,1,1-.77-0.75A0.767,0.767,0,0,1,1382.04,23.25Z" transform="translate(-1374 -13)"/>
</svg>
