<svg xmlns="http://www.w3.org/2000/svg" width="14" height="11" viewBox="0 0 14 11">
  <metadata><?xpacket begin="﻿" id="W5M0MpCehiHzreSzNTczkc9d"?>
<x:xmpmeta xmlns:x="adobe:ns:meta/" x:xmptk="Adobe XMP Core 5.6-c138 79.159824, 2016/09/14-01:09:01        ">
   <rdf:RDF xmlns:rdf="http://www.w3.org/1999/02/22-rdf-syntax-ns#">
      <rdf:Description rdf:about=""/>
   </rdf:RDF>
</x:xmpmeta>
                                                                                                    
                                                                                                    
                                                                                                    
                                                                                                    
                                                                                                    
                                                                                                    
                                                                                                    
                                                                                                    
                                                                                                    
                                                                                                    
                                                                                                    
                                                                                                    
                                                                                                    
                                                                                                    
                                                                                                    
                                                                                                    
                                                                                                    
                                                                                                    
                                                                                                    
                                                                                                    
                           
<?xpacket end="w"?></metadata>
<defs>
    <style>
      .cls-1 {
        fill: #101010;
        fill-rule: evenodd;
      }
    </style>
  </defs>
  <path id="形狀_534_拷貝" data-name="形狀 534 拷貝" class="cls-1" d="M1428.88,26h-9.73a2.118,2.118,0,0,1-2.14-2.1h0V17.174A2.114,2.114,0,0,1,1419.07,15h9.77a2.125,2.125,0,0,1,2.16,2.078v6.751A2.122,2.122,0,0,1,1428.93,26h-0.05Zm-9.76-10.394a1.516,1.516,0,0,0-1.51,1.516v6.726a1.516,1.516,0,0,0,1.49,1.541h9.74a1.5,1.5,0,0,0,1.55-1.466V17.174a1.507,1.507,0,0,0-1.46-1.565h-9.81Zm4.89,6.236-6.23-5.912,0.42-.446,5.8,5.5,5.57-5.594,0.43,0.428Zm1-1.429,0.43-.432,4.87,4.89-0.43.432Zm-7.31,4.455,4.87-4.89,0.43,0.432-4.87,4.89Z" transform="translate(-1417 -15)"/>
</svg>
