<svg xmlns="http://www.w3.org/2000/svg" width="12" height="14" viewBox="0 0 12 14">
  <metadata><?xpacket begin="﻿" id="W5M0MpCehiHzreSzNTczkc9d"?>
<x:xmpmeta xmlns:x="adobe:ns:meta/" x:xmptk="Adobe XMP Core 5.6-c138 79.159824, 2016/09/14-01:09:01        ">
   <rdf:RDF xmlns:rdf="http://www.w3.org/1999/02/22-rdf-syntax-ns#">
      <rdf:Description rdf:about=""/>
   </rdf:RDF>
</x:xmpmeta>
                                                                                                    
                                                                                                    
                                                                                                    
                                                                                                    
                                                                                                    
                                                                                                    
                                                                                                    
                                                                                                    
                                                                                                    
                                                                                                    
                                                                                                    
                                                                                                    
                                                                                                    
                                                                                                    
                                                                                                    
                                                                                                    
                                                                                                    
                                                                                                    
                                                                                                    
                                                                                                    
                           
<?xpacket end="w"?></metadata>
<defs>
    <style>
      .cls-1 {
        fill: #101010;
        fill-rule: evenodd;
      }
    </style>
  </defs>
  <path id="形狀_534" data-name="形狀 534" class="cls-1" d="M1319.98,19.853a3.427,3.427,0,1,1,3.47-3.427A3.455,3.455,0,0,1,1319.98,19.853Zm0-6.187a2.76,2.76,0,1,0,2.79,2.76A2.777,2.777,0,0,0,1319.98,13.667ZM1325.99,27h-12V26.667a5.972,5.972,0,0,1,6-5.94h0.02a5.986,5.986,0,0,1,4.24,1.746,5.821,5.821,0,0,1,1.74,4.195V27Zm-6-5.607a5.292,5.292,0,0,0-5.31,4.94h10.63a5.224,5.224,0,0,0-1.54-3.391,5.316,5.316,0,0,0-3.76-1.549h-0.02Z" transform="translate(-1314 -13)"/>
</svg>
