<svg xmlns="http://www.w3.org/2000/svg" width="9" height="16" viewBox="0 0 9 16">
  <defs>
    <style>
      .cls-1 {
        fill: #fed792;
        fill-rule: evenodd;
      }
    </style>
  </defs>
  <path id="形狀_537" data-name="形狀 537" class="cls-1" d="M1632.14,132.99a0.946,0.946,0,0,0-.73.318,1.035,1.035,0,0,0,0,1.487l6.06,6.161-6.06,6.161a1.146,1.146,0,0,0-.21,1.487,1.106,1.106,0,0,0,1.46.212c0.11-.106.11-0.106,0.21-0.212l6.8-6.9a1.036,1.036,0,0,0,0-1.488l-6.8-6.9A0.946,0.946,0,0,0,1632.14,132.99Z" transform="translate(-1631 -133)"/>
</svg>
