<?xml version="1.0" encoding="utf-8"?>
<!-- Generator: Adobe Illustrator 21.1.0, SVG Export Plug-In . SVG Version: 6.00 Build 0)  -->
<svg version="1.1" id="圖層_1" xmlns="http://www.w3.org/2000/svg" xmlns:xlink="http://www.w3.org/1999/xlink" x="0px" y="0px"
	 viewBox="0 0 9 16" style="enable-background:new 0 0 9 16;" xml:space="preserve">
<title>arrow_3</title>
<path id="形狀_537" d="M7.9,16c0.3,0,0.5-0.1,0.7-0.3c0.4-0.4,0.4-1,0-1.4c0,0,0,0,0,0l0,0L2.5,8l6.1-6.1c0.4-0.4,0.5-1,0.2-1.5
	C8.4,0,7.8-0.1,7.3,0.2L7.1,0.4L0.3,7.3c-0.4,0.4-0.4,1,0,1.4c0,0,0,0,0,0l0,0l6.8,6.9C7.3,15.9,7.6,16,7.9,16z"/>
</svg>
