<svg xmlns="http://www.w3.org/2000/svg" width="21" height="22" viewBox="0 0 21 22">
  <defs>
    <style>
      .cls-1 {
        fill: #ffffff;
        fill-rule: evenodd;
      }
    </style>
  </defs>
  <path id="形狀_15" data-name="形狀 15" class="cls-1" d="M42.037,218.027a0.713,0.713,0,0,0-.636-0.4H38.6v-8.939A0.69,0.69,0,0,0,37.905,208H35.1a0.69,0.69,0,0,0-.694.683v8.939h-2.8a0.713,0.713,0,0,0-.636.4,0.686,0.686,0,0,0,.106.741l4.9,5.5a0.7,0.7,0,0,0,.53.232,0.719,0.719,0,0,0,.53-0.232l4.9-5.5A0.683,0.683,0,0,0,42.037,218.027Zm2.154,5.1v4.122H28.817v-4.122h-2.8v5.5a1.386,1.386,0,0,0,1.4,1.378H45.593a1.386,1.386,0,0,0,1.4-1.378v-5.5h-2.8Z" transform="translate(-26 -208)"/>
</svg>
