<svg xmlns="http://www.w3.org/2000/svg" width="21.87" height="28.937" viewBox="0 0 21.87 28.937">
  <defs>
    <style>
      .cls-1 {
        fill: #101010;
        fill-rule: evenodd;
      }
    </style>
  </defs>
  <path id="形狀_39" data-name="形狀 39" class="cls-1" d="M1889.33,933.721h-19.16a1.336,1.336,0,0,1,0-2.664h19.16a1.338,1.338,0,1,1,.24,2.664A1.6,1.6,0,0,1,1889.33,933.721Zm0.63,12.871-9.26-9.15a1.356,1.356,0,0,0-1.9,0l-9.25,9.15a1.323,1.323,0,0,0,0,1.891,1.359,1.359,0,0,0,1.9.005l6.95-6.875v17.043a1.355,1.355,0,0,0,2.71.006V941.613l6.93,6.875a1.4,1.4,0,0,0,1.01.389,1.343,1.343,0,0,0,1.36-1.332,1.323,1.323,0,0,0-.4-0.953h-0.05Z" transform="translate(-1868.94 -931.063)"/>
</svg>
