<svg xmlns="http://www.w3.org/2000/svg" width="14" height="13" viewBox="0 0 14 13">
  <defs>
    <style>
      .cls-1 {
        fill: #fed792;
        fill-rule: evenodd;
      }
    </style>
  </defs>
  <path id="形狀_551_拷貝" data-name="形狀 551 拷貝" class="cls-1" d="M1115.96,697.5a0.482,0.482,0,0,1-.37-0.161l-6.45-6.425a0.541,0.541,0,0,1,.77-0.76l6.05,6.05,6.07-6.05a0.53,0.53,0,0,1,.76,0,0.52,0.52,0,0,1,0,.76l-6.44,6.425A0.558,0.558,0,0,1,1115.96,697.5Zm0,5.5a0.481,0.481,0,0,1-.37-0.16l-6.45-6.426a0.541,0.541,0,0,1,.77-0.76l6.06,6.05,6.07-6.05a0.53,0.53,0,0,1,.76,0,0.52,0.52,0,0,1,0,.76l-6.44,6.426A0.6,0.6,0,0,1,1115.96,703Z" transform="translate(-1109 -690)"/>
</svg>
