<svg xmlns="http://www.w3.org/2000/svg" width="21.78" height="15.031" viewBox="0 0 21.78 15.031">
  <defs>
    <style>
      .cls-1 {
        fill: #d8d8d8;
        fill-rule: evenodd;
      }
    </style>
  </defs>
  <path id="不顯示" class="cls-1" d="M1314.24,348.736a15.527,15.527,0,0,1-9.28-3.256,7.616,7.616,0,0,1-1.68-1.48,0.824,0.824,0,0,1,0-1.382c3.26-2.96,7.01-5.032,11.55-4.637a14.422,14.422,0,0,1,7.8,3.256,11.394,11.394,0,0,1,1.68,1.48,0.736,0.736,0,0,1,0,1.283C1321.35,346.762,1317.99,348.637,1314.24,348.736Zm-9.19-5.427c5.83,4.933,11.66,4.835,17.29,0C1316.61,338.474,1310.88,338.474,1305.05,343.309Zm8.7-3.256a3.306,3.306,0,1,1-3.26,3.355A3.244,3.244,0,0,1,1313.75,340.053Zm-7.53-4.383,0.8-.74,13.33,14.287-0.79.74Z" transform="translate(-1302.91 -334.938)"/>
</svg>
