<svg xmlns="http://www.w3.org/2000/svg" width="14.938" height="15" viewBox="0 0 14.938 15">
  <defs>
    <style>
      .cls-1 {
        fill: #b4b4b4;
        fill-rule: evenodd;
      }
    </style>
  </defs>
  <path id="形狀_551" data-name="形狀 551" class="cls-1" d="M634.492,195.792a5.739,5.739,0,0,1,5.431,3.992c0.6-.05,1.2-0.11,1.794-0.17a7.441,7.441,0,0,0-12.974-2.882l-0.568-.56a0.4,0.4,0,0,0-.439-0.1,0.384,0.384,0,0,0-.289.35l-0.428,2.9a0.468,0.468,0,0,0,.319.48c0.179-.02.358-0.03,0.538-0.04,0.8-.11,2.69-0.38,2.541-0.36a0.406,0.406,0,0,0,.348-0.29,0.447,0.447,0,0,0-.109-0.461l-0.668-.67A5.743,5.743,0,0,1,634.492,195.792Zm6.976,7.314c-0.09.01-3.079,0.44-2.89,0.41a0.407,0.407,0,0,0-.349.29,0.445,0.445,0,0,0,.11.461l0.7,0.7a5.686,5.686,0,0,1-10.084-2.211c-0.6.09-1.186,0.18-1.764,0.28a7.449,7.449,0,0,0,13.1,3.182l0.518,0.52a0.428,0.428,0,0,0,.448.11,0.4,0.4,0,0,0,.289-0.35l0.419-2.9A0.449,0.449,0,0,0,641.468,203.106Z" transform="translate(-627.031 -194)"/>
</svg>
