<svg xmlns="http://www.w3.org/2000/svg" width="19" height="19" viewBox="0 0 19 19">
  <defs>
    <style>
      .cls-1 {
        fill: #b4b4b4;
        fill-rule: evenodd;
      }
    </style>
  </defs>
  <path id="形狀_588_拷貝" data-name="形狀 588 拷貝" class="cls-1" d="M635.491,206a9.5,9.5,0,1,1,9.5-9.5A9.494,9.494,0,0,1,635.491,206Zm0-17.886a8.384,8.384,0,1,0,8.383,8.384A8.445,8.445,0,0,0,635.491,188.114Zm1.341,5.59a1.348,1.348,0,0,0-1.453-1.454,2.123,2.123,0,0,0-1.677.9l-0.783-.671a3.541,3.541,0,0,1,2.572-1.23,2.206,2.206,0,0,1,2.459,2.348c0,2.012-2.459,2.795-2.124,4.918h-1.118C634.484,196.163,636.832,195.38,636.832,193.7Zm-2.348,7.042a0.9,0.9,0,1,1,1.789,0,0.881,0.881,0,0,1-.894.894A0.823,0.823,0,0,1,634.484,200.746Z" transform="translate(-626 -187)"/>
</svg>
