<svg xmlns="http://www.w3.org/2000/svg" width="42" height="42" viewBox="0 0 42 42">
  <defs>
    <style>
      .cls-1 {
        fill: #101010;
        fill-rule: evenodd;
      }
    </style>
  </defs>
  <path id="形狀_1" data-name="形狀 1" class="cls-1" d="M1147.01,223a21,21,0,1,1,20.99-20.94A20.968,20.968,0,0,1,1147.01,223Zm-19.49-20.945a19.48,19.48,0,1,0,19.47-19.527A19.65,19.65,0,0,0,1127.52,202.052Zm19.41,13.476c-2.18,0-4.35.016-6.53,0-2.95-.026-4.9-1.968-4.68-4.907a29.233,29.233,0,0,1,1.04-5.712,4.685,4.685,0,0,1,2.93-3,3.087,3.087,0,0,1,3.28.275,6.313,6.313,0,0,0,7.62.221,3.924,3.924,0,0,1,5.46.808,8.375,8.375,0,0,1,1.56,3.081,18.959,18.959,0,0,1,.59,4.625,4.324,4.324,0,0,1-4.62,4.611C1151.36,215.543,1149.15,215.528,1146.93,215.528Zm0.02-1.683c2.21,0,4.43.026,6.65-.009,1.65-.025,2.85-0.911,2.9-2.3a11.624,11.624,0,0,0-1.33-6.564,2.546,2.546,0,0,0-3.91-.969,7.566,7.566,0,0,1-8.66.057c-1.72-1.034-3.11-.835-3.98,1.033a18.551,18.551,0,0,0-1.28,4.916c-0.39,2.452.86,3.812,3.31,3.832C1142.75,213.86,1144.85,213.847,1146.95,213.845Zm0.08-25.22a6.49,6.49,0,0,1-.05,12.98,6.49,6.49,0,0,1-6.47-6.587A6.423,6.423,0,0,1,1147.03,188.625Zm4.91,6.323a4.935,4.935,0,1,0-4.94,5.015A4.953,4.953,0,0,0,1151.94,194.948Z" transform="translate(-1126 -181)"/>
</svg>
