<svg xmlns="http://www.w3.org/2000/svg" width="20" height="18" viewBox="0 0 20 18">
  <defs>
    <style>
      .cls-1 {
        fill: #fed792;
        fill-rule: evenodd;
      }
    </style>
  </defs>
  <path id="形狀_659_拷貝" data-name="形狀 659 拷貝" class="cls-1" d="M591,199.538c-0.019.054-.04,0.107-0.057,0.162a1.512,1.512,0,0,1-1.154,1.119c-0.525.118-1.058,0.2-1.623,0.3v-0.252c0-1.343,0-2.685,0-4.028a2.746,2.746,0,0,0-2.094-2.754,3.058,3.058,0,0,0-.715-0.075q-5.781-.008-11.562,0a0.214,0.214,0,0,1-.27-0.229,7.64,7.64,0,0,1-.106-1.077,1.515,1.515,0,0,1,1.277-1.383q4.275-.761,8.55-1.518c1.492-.264,2.984-0.532,4.478-0.788a1.484,1.484,0,0,1,1.712,1.171c0.165,0.795.289,1.6,0.428,2.4q0.552,3.171,1.1,6.343a1.182,1.182,0,0,0,.037.129v0.477Zm-20,2.255h16v0.222c0,1.091,0,2.182,0,3.274a1.579,1.579,0,0,1-1.682,1.71q-6.307,0-12.617,0a1.584,1.584,0,0,1-1.7-1.732q0-1.617,0-3.234v-0.24Zm3.308,3.778c0.43,0,.859,0,1.289,0a0.6,0.6,0,1,0,0-1.189q-1.279,0-2.558,0a0.6,0.6,0,1,0,0,1.189C573.46,205.573,573.883,205.571,574.306,205.571Zm-3.3-5v-2.67H586.98v2.67H571.008Zm15.978-3.88H571.018a1.529,1.529,0,0,1,1.119-1.437,2.119,2.119,0,0,1,.521-0.058q6.337,0,12.675,0a1.558,1.558,0,0,1,1.622,1.233A2.438,2.438,0,0,1,586.986,196.7Z" transform="translate(-571 -189)"/>
</svg>
