<svg xmlns="http://www.w3.org/2000/svg" width="20" height="18" viewBox="0 0 20 18">
  <defs>
    <style>
      .cls-1 {
        fill: #fed792;
        fill-rule: evenodd;
      }
    </style>
  </defs>
  <path id="形狀_658" data-name="形狀 658" class="cls-1" d="M815,200.253v-2.372a0.576,0.576,0,0,0,.041-0.1q0.273-1.373.545-2.747l0.521-2.636H833.87c0.009,0.034.017,0.058,0.022,0.083,0.249,1.263.472,2.533,0.755,3.79a12.859,12.859,0,0,1,.338,3.5c-0.006.1,0,.2,0,0.3,0,0.057-.007.114-0.012,0.189h-1.1v3.63q0,1.463,0,2.925c0,0.1.008,0.191-.145,0.189-0.663-.006-1.327,0-1.99-0.005a0.434,0.434,0,0,1-.094-0.028v-6.7h-4.439v6.72c-0.078,0-.142.009-0.206,0.009q-5.337,0-10.675,0c-0.183,0-.225-0.056-0.224-0.233q0.009-3.121,0-6.243v-0.27H815Zm9.979,4.485v-4.474h-6.635v4.474h6.635Zm8.9-13.493h-17.76c0-.077-0.009-0.146-0.009-0.216,0-.6.006-1.2,0-1.8a0.184,0.184,0,0,1,.227-0.231q5.979,0.007,11.959,0c1.788,0,3.576,0,5.364,0a0.184,0.184,0,0,1,.228.23c-0.011.6,0,1.2,0,1.8v0.217Z" transform="translate(-815 -189)"/>
</svg>
