<svg xmlns="http://www.w3.org/2000/svg" viewBox="0 0 11.25 8.99"><defs><style>.cls-1{fill:#101010;fill-rule:evenodd;}</style></defs><title>資產 4</title><g id="圖層_2" data-name="圖層 2"><g id="CONTENT"><g id="LEFT"><g id="錢包_滑入" data-name="錢包 滑入"><g id="形狀_535" data-name="形狀 535"><path class="cls-1" d="M9.64,0h-8A1.59,1.59,0,0,0,0,1.56V7.42A1.59,1.59,0,0,0,1.61,9h8a1.59,1.59,0,0,0,1.61-1.56V1.56A1.59,1.59,0,0,0,9.64,0Zm1,5.47H8.2a1,1,0,0,1-1-.94.92.92,0,0,1,1-.94h2.41Zm0-2.5H8.2A1.59,1.59,0,0,0,6.59,4.53,1.59,1.59,0,0,0,8.2,6.09h2.41V7.42a.92.92,0,0,1-1,.94h-8a.92.92,0,0,1-1-.94V1.56a.92.92,0,0,1,1-.94h8a.92.92,0,0,1,1,.94ZM8,4.53a.34.34,0,0,0,.32.31h.4A.34.34,0,0,0,9,4.53a.34.34,0,0,0-.32-.31h-.4A.34.34,0,0,0,8,4.53Z"/></g></g></g></g></g></svg>