<svg xmlns="http://www.w3.org/2000/svg" viewBox="0 0 10.5 8.25"><defs><style>.cls-1{fill:#101010;fill-rule:evenodd;}</style></defs><title>資產 10</title><g id="圖層_2" data-name="圖層 2"><g id="CONTENT"><g id="LEFT"><g id="影像_164" data-name="影像 164"><g id="形狀_535" data-name="形狀 535"><path class="cls-1" d="M8.93,0H1.57A1.63,1.63,0,0,0,0,1.58V6.66A1.58,1.58,0,0,0,1.57,8.25H8.93A1.58,1.58,0,0,0,10.5,6.66V1.58A1.58,1.58,0,0,0,8.93,0Zm0,.42a1.18,1.18,0,0,1,.34.07l-4.06,4L1.1.51a1.19,1.19,0,0,1,.47-.1ZM.41,6.66V1.58A1.16,1.16,0,0,1,.71.8L3.95,3.94.61,7.3A1.16,1.16,0,0,1,.41,6.66ZM1.57,7.83A1.14,1.14,0,0,1,.9,7.6L4.24,4.23l1,.93.95-1,3.4,3.42a1.14,1.14,0,0,1-.63.2Zm8.51-1.17a1.16,1.16,0,0,1-.23.68L6.45,3.91,9.65.68a1.14,1.14,0,0,1,.43.9Z"/></g></g></g></g></g></svg>