<svg xmlns="http://www.w3.org/2000/svg" viewBox="0 0 12.75 11.25"><defs><style>.cls-1{fill:#101010;fill-rule:evenodd;}</style></defs><title>資產 7</title><g id="圖層_2" data-name="圖層 2"><g id="CONTENT"><g id="LEFT"><g id="影像_197" data-name="影像 197"><g id="形狀_695_拷貝" data-name="形狀 695 拷貝"><path class="cls-1" d="M12.08,3.5,10.59,2.44a.26.26,0,0,1-.12-.25c0-.24,0-.48,0-.72A1.39,1.39,0,0,0,9,0H3.68A1.36,1.36,0,0,0,2.29,1.24a7.57,7.57,0,0,0,0,1,.24.24,0,0,1-.11.23L.6,3.55A1.39,1.39,0,0,0,0,4.75Q0,7.33,0,9.9v.17L4.06,7.16,3.28,6.6a.24.24,0,0,1-.09-.16q0-2.51,0-5A.46.46,0,0,1,3.66.94H9.08a.46.46,0,0,1,.48.49q0,2.51,0,5a.24.24,0,0,1-.08.16l-.69.5-.08.08,4,2.9V9.86c0-1.68,0-3.36,0-5A1.49,1.49,0,0,0,12.08,3.5ZM2.27,5.87l-.1-.06-1-.74a.43.43,0,0,1,0-.76L2.27,3.5ZM11.68,5c-.38.3-.79.57-1.2.87V3.5c.41.29.8.56,1.18.85A.4.4,0,0,1,11.68,5Zm-4,2.55a.36.36,0,0,0-.2-.06H5.36A.5.5,0,0,0,5,7.6L2.37,9.51.46,10.89a1.43,1.43,0,0,0,1,.36h9.81a2,2,0,0,0,.33,0,1.25,1.25,0,0,0,.67-.33l0,0ZM6.28,3.23A1.16,1.16,0,0,1,7,3.42a2.34,2.34,0,0,0,.27.12.5.5,0,0,0,.45-.33.45.45,0,0,0-.16-.53A3.87,3.87,0,0,0,7,2.4c-.09,0-.15-.06-.17-.17a.42.42,0,0,0-.38-.34A.38.38,0,0,0,6,2.11a.49.49,0,0,1-.35.33.74.74,0,0,0-.18.11,1.12,1.12,0,0,0,.16,1.89,5.62,5.62,0,0,0,.59.21c.17.06.34.1.5.16a.16.16,0,0,1,0,.3.56.56,0,0,1-.28.09A1.24,1.24,0,0,1,5.71,5a.44.44,0,0,0-.63.14.46.46,0,0,0,.16.65A3.68,3.68,0,0,0,5.78,6c.08,0,.14.05.16.16a.44.44,0,0,0,.87,0A.22.22,0,0,1,7,6.06a1.1,1.1,0,0,0,.76-1A1,1,0,0,0,7.07,4a5.37,5.37,0,0,0-.54-.18c-.16-.05-.33-.09-.49-.15a.16.16,0,0,1,0-.29A.56.56,0,0,1,6.28,3.23Z"/></g></g></g></g></g></svg>