<svg xmlns="http://www.w3.org/2000/svg" viewBox="0 0 16.39 15.07"><defs><style>.cls-1{fill:#101010;fill-rule:evenodd;}</style></defs><title>資產 2</title><g id="圖層_2" data-name="圖層 2"><g id="CONTENT"><g id="LEFT"><g id="影像_249" data-name="影像 249"><g id="形狀_656" data-name="形狀 656"><path class="cls-1" d="M13.11,2.63a.47.47,0,0,0,.64-.27c.11-.25.21-.5.33-.75A.56.56,0,0,0,14,.91l-.23-.1a.58.58,0,0,0-.57.44c-.09.25-.21.48-.31.72A.49.49,0,0,0,13.11,2.63Zm-.17,2.12L11.48,1a1.39,1.39,0,0,0-1-.91,1.43,1.43,0,0,0-1.8,1.57.27.27,0,0,1,0,.16,9.91,9.91,0,0,1-1.77,2A10.58,10.58,0,0,1,3.78,5.52c-1,.36-1.9.74-2.85,1.13A1.43,1.43,0,0,0,.1,8.51q.34.94.72,1.86a1.4,1.4,0,0,0,1.83.79L3.08,11l.49,1.27c.25.66.49,1.32.77,2a1.4,1.4,0,0,0,2.16.55A1.44,1.44,0,0,0,7,13.12c-.17-.46-.36-.91-.55-1.39l.4-.14a1.46,1.46,0,0,0,.85-2l-.09-.24a9.69,9.69,0,0,1,4,0,.32.32,0,0,1,.15.12,1.42,1.42,0,0,0,1.65.47,1.46,1.46,0,0,0,.8-1.93ZM2.38,10.22a.49.49,0,0,1-.73-.32L1,8.26a.5.5,0,0,1,.31-.73L4.22,6.38l.12,0L5.38,9l-.15.06ZM6,13.94a.44.44,0,0,1-.46.14.45.45,0,0,1-.32-.29L4,10.62l.19-.05.69-.27,0,.09,1.17,3A.49.49,0,0,1,6,13.94Zm.14-3.12-.34-.89.86-.31C7,10.29,6.94,10.57,6.11,10.82Zm.22-2.12L5.27,5.94A10.89,10.89,0,0,0,9.09,2.85l2.12,5.5A10.72,10.72,0,0,0,6.33,8.69Zm10-5.5a.47.47,0,0,0-.59-.3q-.67.24-1.32.53a.44.44,0,0,0-.26.45.51.51,0,0,0,.34.45.86.86,0,0,0,.28,0q.65-.24,1.3-.51A.48.48,0,0,0,16.36,3.2ZM15.85,6l-.9-.4a.47.47,0,0,0-.61.25.49.49,0,0,0,.23.64l.43.2.45.2a.46.46,0,0,0,.62-.24A.47.47,0,0,0,15.85,6ZM3.74,7.74a1,1,0,0,0-.32,0c-.33.11-.65.24-1,.38A.48.48,0,0,0,2.81,9q.48-.17.94-.37A.45.45,0,0,0,4,8.19.52.52,0,0,0,3.74,7.74Z"/></g></g></g></g></g></svg>