<svg xmlns="http://www.w3.org/2000/svg" viewBox="0 0 10.5 12.75"><defs><style>.cls-1{fill:#101010;fill-rule:evenodd;}</style></defs><title>資產 1</title><g id="圖層_2" data-name="圖層 2"><g id="CONTENT"><g id="LEFT"><g id="影像_259" data-name="影像 259"><g id="形狀_535" data-name="形狀 535"><path class="cls-1" d="M5.25,6.38a2.93,2.93,0,0,0,2.13-.94,3,3,0,0,0,.9-2.21A3.2,3.2,0,0,0,7.39.94,2.93,2.93,0,0,0,5.25,0,3.11,3.11,0,0,0,3,.94a3.51,3.51,0,0,0-.9,2.29A3.21,3.21,0,0,0,5.25,6.38ZM3.61,1.53A2.25,2.25,0,0,1,5.25.85a2.2,2.2,0,0,1,1.56.68,2.29,2.29,0,0,1,.57,1.61,2.36,2.36,0,0,1-.66,1.61,2.2,2.2,0,0,1-1.56.68A2.25,2.25,0,0,1,3,3.15,2.36,2.36,0,0,1,3.61,1.53Zm5.33,7A5.13,5.13,0,0,0,5.25,6.88,5.33,5.33,0,0,0,0,12.33v.42H10.5v-.42A5.5,5.5,0,0,0,8.95,8.5ZM.82,11.9A4.58,4.58,0,0,1,5.25,7.74a4.09,4.09,0,0,1,3,1.36A4.47,4.47,0,0,1,9.6,11.9Z"/></g></g></g></g></g></svg>