<svg xmlns="http://www.w3.org/2000/svg" viewBox="0 0 8.99 10.51"><defs><style>.cls-1{fill:#101010;fill-rule:evenodd;}</style></defs><title>資產 6</title><g id="圖層_2" data-name="圖層 2"><g id="CONTENT"><g id="LEFT"><g id="影像_207" data-name="影像 207"><g id="形狀_535" data-name="形狀 535"><path class="cls-1" d="M5.28,9.69H1.78a.9.9,0,0,1-1-1V1.86a.9.9,0,0,1,1-1H7a.9.9,0,0,1,1,1V6.11c0,.3.15.45.37.45a.42.42,0,0,0,.37-.45V1.71A1.68,1.68,0,0,0,7.43.07C7.36.07,7.21,0,7.13,0H1.34A1.78,1.78,0,0,0,.07,1.34.23.23,0,0,0,0,1.49V8.94a1.91,1.91,0,0,0,.74,1.19,8.69,8.69,0,0,0,.82.37H5.5a1,1,0,0,0,.22-.3C5.87,9.91,5.65,9.69,5.28,9.69ZM8.92,8A1.82,1.82,0,0,0,7.21,6.56,1.75,1.75,0,0,0,5.42,7.9,1.85,1.85,0,0,0,6.32,10a1.72,1.72,0,0,0,2.23-.37,2,2,0,0,0,.45-1V8.2C8.92,8.12,8.92,8.12,8.92,8Zm-1,.6h-1V7.45a.3.3,0,1,1,.59,0V8h.45a.32.32,0,0,1,.3.3A.27.27,0,0,1,7.88,8.64ZM6.46,3.35a.43.43,0,0,0,.45-.45c0-.22-.15-.37-.45-.37H4.38a19.39,19.39,0,0,0-2.08.07c-.3,0-.45.15-.45.37s.15.37.45.37Zm.37,2c.22-.3,0-.6-.37-.6H2.38c-.37,0-.52.15-.52.37s.15.37.45.37H6.46C6.61,5.51,6.76,5.51,6.84,5.37ZM2.3,7a.35.35,0,0,0-.37.37c-.07.22.15.37.37.37h.82a3,3,0,0,1,.82.07c.3,0,.45-.15.45-.37A.35.35,0,0,0,4,7Z"/></g></g></g></g></g></svg>