<svg xmlns="http://www.w3.org/2000/svg" viewBox="0 0 13.49 11.25"><defs><style>.cls-1{fill:#101010;fill-rule:evenodd;}</style></defs><title>資產 5</title><g id="圖層_2" data-name="圖層 2"><g id="CONTENT"><g id="LEFT"><g id="影像_217" data-name="影像 217"><g id="形狀_535" data-name="形狀 535"><path class="cls-1" d="M10.77,4.32h.39c0-.11,0-.19-.07-.27-.27-.91-.56-1.81-.79-2.72A1.63,1.63,0,0,0,8.89,0H8.47a.59.59,0,0,1-.14,0L1.23,1.48c-.94.2-1.4.84-1.18,1.62s.47,1.6.71,2.39c.11.36.2.72.34,1.07A1.35,1.35,0,0,0,2,7.29a4.75,4.75,0,0,1,0-.7,3.21,3.21,0,0,1,.26-1,2.65,2.65,0,0,1,2.5-1.26ZM9.25,1.87c.15.49.29,1,.45,1.48l-1.8.36L7.46,2.23C8.08,2.1,8.64,2,9.25,1.87Zm4.19,4.34a1.5,1.5,0,0,0-1.55-1H4.61A1.42,1.42,0,0,0,3,6.47C3,7.64,3,8.8,3,10a1.11,1.11,0,0,0,.6,1,5.24,5.24,0,0,0,.72.29h7.8a1.61,1.61,0,0,0,1.33-1.1V6.3A.46.46,0,0,1,13.44,6.22Zm-.78,3.11c0,.21,0,.42,0,.62a.65.65,0,0,1-.71.59c-.33,0-.67,0-1,0H4.81c-.72,0-1-.19-1-.79V8.22h8.81Zm0-2.4H3.86a3.26,3.26,0,0,1,0-.58c.05-.28.35-.47.76-.47h2c1.64,0,3.26,0,4.9,0C12.53,5.85,12.75,6.23,12.63,6.93Z"/></g></g></g></g></g></svg>