<svg xmlns="http://www.w3.org/2000/svg" viewBox="0 0 10.5 14.26"><defs><style>.cls-1{fill:#101010;fill-rule:evenodd;}</style></defs><title>資產 9</title><g id="圖層_2" data-name="圖層 2"><g id="CONTENT"><g id="LEFT"><g id="影像_174" data-name="影像 174"><g id="形狀_535" data-name="形狀 535"><path class="cls-1" d="M10.3,10.12C9.23,8.39,8.24,6.58,7.17,4.85a4.3,4.3,0,0,0-1-1.47,1.38,1.38,0,0,1,.36-.6A4.9,4.9,0,0,0,6.9,1.13,1.2,1.2,0,0,0,5.47,0a3.17,3.17,0,0,0-1.34.6A6.39,6.39,0,0,0,2.6,2.17a.34.34,0,0,1-.27.09H2a1.13,1.13,0,0,0-1,.86C.63,4.07.36,5,.09,6A1.51,1.51,0,0,0,.27,7.35c1.16,2.07,2.42,4.15,3.67,6.31,0,.09.09.09.09.17a1.24,1.24,0,0,0,.72.43,1.57,1.57,0,0,0,.63-.09c1.52-.86,3-1.64,4.66-2.59l.27-.26A1,1,0,0,0,10.3,10.12ZM2.15,5.37a1,1,0,0,1,.36-1,1.07,1.07,0,0,1,.9-.17c.09.09.09,0,.18,0a15.16,15.16,0,0,0,1.16-1.3c-.45-.09-.81-.26-1.25-.35.09-.17.27-.26.36-.43a2.81,2.81,0,0,1,1.07-.78A1,1,0,0,1,5.65,1c.18,0,.27,0,.27.17a.94.94,0,0,1-.09.69A6.15,6.15,0,0,1,3.94,4.5l-.09.09a.69.69,0,0,1,.09.6.77.77,0,0,1-.81.69A.91.91,0,0,1,2.15,5.37ZM4.39,9.86A1,1,0,0,1,3,9.51a1,1,0,0,1,.45-1.3.92.92,0,0,1,1.25.35A1,1,0,0,1,4.39,9.86Zm.72,1.47c-.18,0-.27-.09-.27-.17V11c.27-1.3.45-2.5.72-3.71,0-.17,0-.26.18-.26s.18.09.27.09a.63.63,0,0,0,.09.35c-.27,1.21-.45,2.51-.72,3.71C5.29,11.24,5.2,11.33,5.11,11.33ZM7.53,9.94A1,1,0,0,1,6.18,9.6a.86.86,0,0,1,.36-1.21,1.14,1.14,0,0,1,1.34.26A.93.93,0,0,1,7.53,9.94ZM3.76,8.65c-.18.17-.27.35-.18.52a.44.44,0,0,0,.54.17.41.41,0,0,0,.18-.52A.44.44,0,0,0,3.76,8.65Zm3,.17a.34.34,0,0,0-.18.52.36.36,0,0,0,.54.17A.32.32,0,0,0,7.26,9C7.17,8.82,6.9,8.74,6.81,8.82Z"/></g></g></g></g></g></svg>