<svg xmlns="http://www.w3.org/2000/svg" viewBox="0 0 9 11.25"><defs><style>.cls-1{fill:#101010;fill-rule:evenodd;}</style></defs><title>資產 8</title><g id="圖層_2" data-name="圖層 2"><g id="CONTENT"><g id="LEFT"><g id="影像_186" data-name="影像 186"><g id="形狀_535" data-name="形狀 535"><path class="cls-1" d="M5.94,8.65V9H.8V2.3H5.94V2.6h.8V1.3A1.18,1.18,0,0,0,5.46,0H1.37A1.2,1.2,0,0,0,0,1.3V10a1.22,1.22,0,0,0,1.37,1.22h4.1a1.28,1.28,0,0,0,1.37-1.3V8.65c-.16,0-.32.08-.48.08A.75.75,0,0,1,5.94,8.65ZM2.57,1H4.26c.08,0,.24,0,.24.15s-.08.15-.24.15H2.65c-.08,0-.24,0-.24-.15S2.49,1,2.57,1Zm.8,9.49a.38.38,0,1,1,0-.77.38.38,0,1,1,0,.77ZM6.43,3.14A2.61,2.61,0,0,0,3.77,5.66a2.44,2.44,0,0,0,.48,1.45l-.32.69.8-.15a3.09,3.09,0,0,0,1.61.54A2.61,2.61,0,0,0,9,5.66,2.54,2.54,0,0,0,6.43,3.14ZM5,5.89a.31.31,0,1,1,.32-.31A.31.31,0,0,1,5,5.89Zm1.45,0a.31.31,0,1,1,.32-.31A.31.31,0,0,1,6.43,5.89Zm1.45,0a.31.31,0,1,1,.32-.31A.31.31,0,0,1,7.87,5.89Z"/></g></g></g></g></g></svg>